<svg width="92" height="93" viewBox="0 0 92 93" fill="none" xmlns="http://www.w3.org/2000/svg">
<path d="M86.8513 23.6712C85.3273 22.1501 82.8595 22.1501 81.3355 23.6712L76.1227 28.8869C74.5986 30.4081 74.5986 32.8788 76.1227 34.4028C77.6438 35.9268 80.1174 35.9268 81.6385 34.4028L86.8513 29.19C88.3753 27.6631 88.3753 25.1981 86.8513 23.6712Z" fill="#25153B"/>
<path d="M31.0834 79.4421C29.5565 77.9209 27.0887 77.9209 25.5647 79.4421L22.837 82.1726C21.3159 83.6937 21.3159 86.1644 22.837 87.6884C24.3611 89.2125 26.8318 89.2125 28.3529 87.6884L31.0834 84.9608C32.6074 83.4368 32.6074 80.9689 31.0834 79.4449" fill="#25153B"/>
<path d="M68.9876 5.4552C67.4665 3.93408 64.9928 3.93408 63.4717 5.4552L60.7441 8.18572C59.2201 9.70685 59.2201 12.1776 60.7441 13.7016C62.2652 15.2285 64.736 15.2285 66.26 13.7016L68.9876 10.974C70.5116 9.44996 70.5116 6.9821 68.9876 5.45809" fill="#25153B"/>
<path d="M1.14301 55.052C-0.381003 53.528 -0.381003 51.0601 1.14301 49.5361L2.06088 48.6154C3.58489 47.0913 6.05563 47.0913 7.57964 48.6154C9.10077 50.1394 9.10077 52.6101 7.57964 54.1341L6.65889 55.052C5.13488 56.576 2.66702 56.576 1.14301 55.052Z" fill="#25153B"/>
<path d="M10.5469 27.6746C9.02287 26.1506 9.02287 23.6799 10.5469 22.1587L22.4994 10.2033C24.0205 8.68222 26.4941 8.68222 28.0153 10.2033C29.5364 11.7274 29.5364 14.1981 28.0153 15.7192L16.0628 27.6746C14.5359 29.1986 12.068 29.1986 10.544 27.6746" fill="#25153B"/>
<path d="M29.1643 9.05735C27.6431 7.53334 27.6431 5.06548 29.1643 3.54147L30.085 2.6236C31.609 1.09959 34.0769 1.09959 35.6009 2.6236C37.1249 4.14761 37.1249 6.61547 35.6009 8.13948L34.6801 9.06024C33.1561 10.5842 30.6883 10.5842 29.1643 9.06024" fill="#25153B"/>
<path d="M1.15738 37.0669C-0.366629 35.5429 -0.366629 33.0721 1.15738 31.5481L2.07814 30.6303C3.59926 29.1062 6.07001 29.1062 7.59402 30.6303C9.11514 32.1514 9.11514 34.6221 7.59402 36.1461L6.67326 37.0669C5.14925 38.588 2.67851 38.588 1.15738 37.0669Z" fill="#25153B"/>
<path d="M11.4876 44.7072C9.96652 43.186 9.96652 40.7153 11.4876 39.1913L23.4402 27.2388C24.9613 25.7148 27.432 25.7148 28.956 27.2388C30.4772 28.7599 30.4772 31.2335 28.956 32.7547L17.0035 44.7072C15.4824 46.2312 13.0117 46.2312 11.4876 44.7072Z" fill="#25153B"/>
<path d="M30.105 26.0872C28.581 24.5632 28.581 22.0953 30.105 20.5713L31.0257 19.6505C32.5497 18.1265 35.0176 18.1265 36.5416 19.6505C38.0656 21.1746 38.0656 23.6453 36.5416 25.1664L35.6209 26.0872C34.0997 27.6112 31.629 27.6112 30.105 26.0872Z" fill="#25153B"/>
<path d="M56.4748 90.1562C54.9537 88.6351 54.9537 86.1643 56.4748 84.6403L57.3927 83.7196C58.9167 82.1956 61.3875 82.1956 62.9086 83.7196C64.4326 85.2436 64.4326 87.7143 62.9086 89.2355L61.9907 90.1533C60.4667 91.6802 57.9959 91.6802 56.4719 90.1533" fill="#25153B"/>
<path d="M65.4403 81.1912C63.9163 79.6672 63.9163 77.1993 65.4403 75.6753L76.016 65.0996C77.5401 63.5756 80.0079 63.5756 81.5319 65.0996C83.0559 66.6236 83.0559 69.0944 81.5319 70.6155L70.9591 81.1912C69.4351 82.7152 66.9644 82.7152 65.4403 81.1912Z" fill="#25153B"/>
<path d="M82.6542 63.9796C81.1302 62.4556 81.1302 59.9849 82.6542 58.4638L83.575 57.543C85.0961 56.019 87.5668 56.019 89.0908 57.543C90.612 59.0641 90.612 61.5349 89.0908 63.0589L88.1701 63.9796C86.6461 65.5036 84.1753 65.5036 82.6542 63.9796Z" fill="#25153B"/>
<path d="M24.0463 50.3703C22.5222 48.8492 20.0544 48.8492 18.5304 50.3703L17.6096 51.291C16.0856 52.815 16.0856 55.2858 17.6096 56.8098C19.1336 58.3338 21.6015 58.3338 23.1255 56.8098L24.0463 55.8919C25.5674 54.365 25.5674 51.8972 24.0463 50.3732" fill="#25153B"/>
<path d="M38.9373 53.453C37.4133 51.929 34.9455 51.929 33.4215 53.453L22.6235 64.251C21.0966 65.775 21.0966 68.2429 22.6235 69.7669C24.1446 71.2909 26.6154 71.2909 28.1394 69.7669L38.9373 58.966C40.4614 57.442 40.4614 54.9742 38.9373 53.4501" fill="#25153B"/>
<path d="M54.9946 73.5046C53.4735 71.9806 51.0028 71.9806 49.4787 73.5046L36.8335 86.1469C35.3095 87.6709 35.3095 90.1388 36.8335 91.6657C38.3575 93.1868 40.8283 93.1868 42.3494 91.6657L54.9917 79.0205C56.5186 77.4993 56.5186 75.0286 54.9917 73.5046" fill="#25153B"/>
<path d="M62.5799 65.9192C61.0558 64.3952 58.5851 64.3952 57.064 65.9192L56.1432 66.8399C54.6221 68.3611 54.6221 70.8318 56.1432 72.3558C57.6672 73.8769 60.138 73.8769 61.6591 72.3558L62.5799 71.4351C64.1039 69.9111 64.1039 67.4432 62.5799 65.9192Z" fill="#25153B"/>
<path d="M71.4205 20.9667C69.8965 19.4456 67.4257 19.4456 65.9046 20.9667L52.7946 34.0766C51.2706 35.6006 51.2706 38.0714 52.7946 39.5954C54.3187 41.1194 56.7894 41.1194 58.3105 39.5954L71.4205 26.4854C72.9445 24.9614 72.9445 22.4907 71.4205 20.9667Z" fill="#25153B"/>
<path d="M55.0519 1.14301C53.5279 -0.381003 51.0572 -0.381003 49.5361 1.14301L40.2217 10.4574C38.6977 11.9785 38.6977 14.4521 40.2217 15.9732C41.7428 17.4973 44.2165 17.4973 45.7376 15.9732L55.0519 6.65889C56.5731 5.13776 56.5731 2.66413 55.0519 1.14301Z" fill="#25153B"/>
<path d="M16.4613 57.9556C14.9401 56.4316 12.4694 56.4316 10.9454 57.9556L4.60401 64.297C3.08 65.8181 3.08 68.2889 4.60401 69.8129C6.12513 71.3369 8.59876 71.3369 10.1199 69.8129L16.4613 63.4744C17.9853 61.9504 17.9853 59.4825 16.4613 57.9585" fill="#25153B"/>
<path d="M79.009 13.3813C77.485 11.8573 75.0142 11.8573 73.4931 13.3813L72.5724 14.302C71.0512 15.8261 71.0512 18.2939 72.5724 19.8208C74.0964 21.3419 76.5642 21.3419 78.0882 19.8208L79.009 18.9001C80.5301 17.376 80.5301 14.9082 79.009 13.3842" fill="#25153B"/>
<path d="M72.4426 38.0829C70.9186 36.556 68.4507 36.556 66.9267 38.0829L66.0059 39.0008C64.4848 40.5219 64.4848 42.9927 66.0059 44.5167C67.5299 46.0407 70.0007 46.0407 71.5218 44.5167L72.4426 43.5988C73.9666 42.0777 73.9666 39.604 72.4426 38.0829Z" fill="#25153B"/>
<path d="M18.9434 73.444C17.4194 71.9229 14.9487 71.9229 13.4276 73.444L12.5068 74.3648C10.9828 75.8888 10.9828 78.3567 12.5068 79.8807C14.0308 81.4047 16.5016 81.4047 18.0227 79.8807L18.9406 78.9628C20.4646 77.4388 20.4646 74.968 18.9406 73.444" fill="#25153B"/>
<path d="M83.2665 45.2297C81.7453 43.7057 79.2746 43.7057 77.7506 45.2297L65.7981 57.1823C64.2741 58.7034 64.2741 61.1741 65.7981 62.6981C67.3192 64.2193 69.7899 64.2193 71.3139 62.6981L83.2665 50.7456C84.7905 49.2245 84.7905 46.7509 83.2665 45.2297Z" fill="#25153B"/>
<path d="M90.8548 37.6442C89.3337 36.1202 86.863 36.1202 85.339 37.6442L84.4211 38.5649C82.8971 40.086 82.8971 42.5568 84.4211 44.0808C85.9422 45.6048 88.4158 45.6048 89.937 44.0808L90.8548 43.1629C92.3817 41.6389 92.3817 39.1711 90.8548 37.6471" fill="#25153B"/>
<path d="M57.9038 21.7835C59.4105 20.245 59.3874 17.7743 57.8489 16.2676C56.3105 14.7609 53.8426 14.784 52.3302 16.3224L27.4091 41.7428C25.9024 43.2813 25.9255 45.752 27.464 47.2587C28.2231 48.0034 29.2102 48.3757 30.1945 48.3757C31.1787 48.3757 32.215 47.9832 32.9798 47.2038L57.9038 21.7835Z" fill="#4CA77A"/>
<path d="M64.0864 45.8877C62.5479 44.381 60.0772 44.4041 58.5705 45.9425L33.6466 71.3629C32.1399 72.9014 32.163 75.3721 33.7014 76.8788C34.4605 77.6235 35.4477 77.9958 36.4319 77.9958C37.4162 77.9958 38.4524 77.6033 39.2173 76.824L64.1412 51.4036C65.6479 49.8651 65.6248 47.3944 64.0864 45.8877Z" fill="#4CA77A"/>
<path d="M45.146 41.6417L40.8309 46.0405C39.3242 47.579 39.3473 50.0497 40.8857 51.5564C41.6477 52.2982 42.632 52.6706 43.6162 52.6706C44.6005 52.6706 45.6396 52.278 46.4016 51.5016L50.7139 47.1027C52.2205 45.5643 52.1975 43.0936 50.659 41.5869C49.1206 40.0802 46.6498 40.1033 45.1431 41.6417" fill="#4CA77A"/>
</svg>
